<svg width="36" height="24" viewBox="0 0 36 24" fill="none" xmlns="http://www.w3.org/2000/svg">
<path fill-rule="evenodd" clip-rule="evenodd" d="M14.0295 17.6471C13.4986 21.2459 10.5736 23.9884 7.0635 23.9884C3.16341 23.9884 0 20.621 0 16.4552C0 12.2893 3.15257 8.92189 7.0635 8.92189C8.6127 8.92189 10.0536 9.4542 11.2128 10.3568L12.7728 8.59788L11.2561 5.48505H9.88023C9.34939 5.48505 8.92688 5.03375 8.92688 4.46673C8.92688 3.89971 9.36022 3.43684 9.88023 3.43684H14.517C15.037 3.43684 15.4704 3.89971 15.4704 4.46673C15.4704 5.03375 15.0479 5.48505 14.517 5.48505H13.3253L14.7445 8.32016L24.3756 6.8621L22.6422 2.14079C22.6097 2.07136 22.588 2.04822 22.4905 2.04822H19.6196C19.0888 2.04822 18.6554 1.58534 18.6554 1.02989C18.6554 0.462874 19.0888 0 19.6196 0H22.8697C23.5522 0 23.9422 0.254581 24.1589 0.856316L27.2248 9.15333C27.7773 9.00289 28.3623 8.92189 28.9582 8.92189C32.8474 8.92189 36 12.2893 36 16.4552C36 20.621 32.8474 24 28.9582 24C25.0473 24 21.8838 20.621 21.8838 16.4552C21.8838 13.6432 23.3355 11.1784 25.4806 9.89393L25.0689 8.77146L19.7496 14.8467C20.1071 15.298 20.3238 15.8766 20.3238 16.5014C20.3238 17.9132 19.2513 19.0588 17.9188 19.0588C16.9654 19.0588 16.142 18.4802 15.752 17.6471H14.0295ZM12.5345 11.6876C13.3903 12.81 13.9537 14.2102 14.0945 15.7377H15.622C15.6979 15.4947 15.7954 15.2633 15.9362 15.055L13.672 10.4262L12.5345 11.6876ZM1.95005 16.4552C1.95005 19.4986 4.2251 21.9286 7.0635 21.9286C9.51189 21.9286 11.5594 20.1003 12.0578 17.6471H8.12519C7.85435 17.9248 7.47518 18.0984 7.0635 18.0984C6.19681 18.0984 5.5143 17.3693 5.52513 16.4552C5.53596 15.5178 6.20765 14.812 7.0635 14.812C7.1285 14.812 7.18267 14.812 7.23684 14.8235L9.85856 11.8727C9.05688 11.3173 8.10352 10.9933 7.0635 10.9933C4.23593 10.9933 1.95005 13.4349 1.95005 16.4552ZM23.8339 16.4552C23.8339 19.4986 26.1198 21.9286 28.9582 21.9286C31.7749 21.9286 34.0716 19.487 34.0716 16.4552C34.0716 13.4465 31.7749 10.9933 28.9582 10.9933C28.6115 10.9933 28.2757 11.028 27.9507 11.0974L29.3374 14.8582C30.009 15.0434 30.4857 15.6798 30.4857 16.4552C30.4857 17.3693 29.814 18.0984 28.9582 18.0984C28.0807 18.0984 27.3981 17.3693 27.409 16.4552C27.409 16.1659 27.4848 15.8997 27.5931 15.6683L26.1956 11.8496C24.7764 12.8216 23.8339 14.5227 23.8339 16.4552ZM11.1803 13.2035L8.89437 15.7377H12.1445C12.0253 14.7888 11.6786 13.9209 11.1803 13.2035ZM17.1387 16.5246C17.1387 16.9528 17.4854 17.323 17.9296 17.323C18.3629 17.323 18.6988 16.9643 18.6988 16.5246C18.6988 16.0501 18.3629 15.6683 17.9296 15.6683C17.4962 15.6683 17.1387 16.0617 17.1387 16.5246ZM19.1548 8.28434L16.8723 11.8712H18.2951V14.4501L20.6962 10.8633H18.9473L19.1548 8.28434Z" fill="white" fill-opacity="0.6"/>
</svg>
