<svg width="27" height="27" viewBox="0 0 27 27" fill="none" xmlns="http://www.w3.org/2000/svg">
<path d="M4.35494 2.14422C7.27891 -0.494242 17.4817 -1.06389 21.6188 2.53405C24.7158 5.22741 25.4944 7.83676 25.6902 8.97857C25.7466 9.30759 25.4737 9.57735 25.1277 9.57407L16.113 9.48889C16.113 9.48889 14.5577 9.48889 13.5312 10.3595C12.7764 10.9997 12.0552 12.044 11.7264 12.5519C11.6085 12.7341 11.4031 12.8481 11.1804 12.8481H1.90923C1.5611 12.8481 1.28236 12.5765 1.30035 12.2414C1.40366 10.3164 1.91706 4.34406 4.35494 2.14422Z" fill="white" fill-opacity="0.6"/>
<path d="M15.4042 12.3246C15.2212 12.4608 14.9825 12.706 14.5697 13.2014C13.6792 14.2702 12.8795 14.9198 11.6274 15.2118C10.5644 15.4596 9.19312 15.4357 7.26105 15.4021H7.26059L6.9512 15.3967C5.37959 15.3699 3.87884 15.3699 2.77026 15.3766C2.46929 15.3784 2.19741 15.3807 1.96108 15.3831C1.76235 15.3851 1.58875 15.3873 1.44412 15.3892C1.28583 15.3913 1.16225 15.3932 1.07844 15.3945L0.959123 15.3965L0.953169 15.3967L0.951772 15.3967H0.951438C0.436092 15.4064 0.010236 15.0116 0.000181237 14.5149C-0.00987356 14.0182 0.3997 13.6078 0.914985 13.5981L0.915654 13.598L1.00001 13.5966L1.04709 13.5958C1.1327 13.5944 1.25818 13.5925 1.41851 13.5904C1.73914 13.5861 2.19927 13.581 2.75854 13.5777C3.87653 13.5709 5.39307 13.5709 6.98422 13.598C9.21131 13.636 10.3635 13.6556 11.1886 13.4632C11.8806 13.3019 12.3563 12.985 13.1145 12.075C13.5261 11.581 13.8863 11.1816 14.2632 10.9009C14.6857 10.5863 15.1071 10.4349 15.5955 10.3774C15.9633 10.3341 16.3929 10.3445 16.8504 10.3556H16.8513C16.9163 10.3572 16.9819 10.3588 17.0479 10.3602C17.6113 10.3726 18.3276 10.3816 19.2973 10.3308L19.3278 10.3292L19.3583 10.3296C20.9972 10.3471 22.6719 10.3471 23.9379 10.3427C24.1754 10.3419 24.3984 10.3409 24.604 10.3399C24.9463 10.3381 25.2403 10.3362 25.4726 10.3345C25.6585 10.3331 25.8047 10.3319 25.9044 10.331L26.0473 10.3297L26.0545 10.3296L26.0563 10.3296H26.0568C26.5722 10.3243 26.9944 10.7227 26.9999 11.2194C27.0054 11.7161 26.5921 12.1231 26.0768 12.1284H26.0761L26.0741 12.1285L26.0666 12.1285L25.9217 12.1299C25.8211 12.1308 25.6738 12.132 25.4869 12.1334C25.288 12.1349 25.0443 12.1365 24.764 12.138C24.5173 12.1394 24.2423 12.1406 23.9447 12.1417C22.6816 12.1461 21.0097 12.1461 19.3678 12.1288C18.3468 12.1812 17.5872 12.1715 17.0054 12.1587C16.9408 12.1573 16.8795 12.1559 16.8213 12.1546C16.3207 12.1432 16.0443 12.1369 15.8217 12.1631C15.6413 12.1843 15.5417 12.2222 15.4042 12.3246Z" fill="white" fill-opacity="0.6"/>
<path d="M9.23859 16.0863H7.34112C7.34112 16.0863 7.7455 19.5643 8.98974 20.8535C10.234 22.1428 12.6292 22.2927 12.6292 22.2927C12.6292 22.2927 13.3372 23.9538 13.9978 24.9012C14.6226 25.7971 15.8642 27 15.8642 27L17.0462 25.7107C17.0462 25.7107 16.035 24.7106 15.522 23.9717C15.0264 23.2579 14.4644 22.0229 14.4644 22.0229C14.4644 22.0229 15.8642 20.3138 16.4552 19.0546C17.0462 17.7953 18.3216 12.7582 18.3216 12.7582H16.4552C16.4552 12.7582 15.9895 15.3229 15.3665 16.8658C15.2589 17.1323 15.1534 17.4094 15.0478 17.6867C14.5557 18.9793 14.0617 20.2769 13.3446 20.5237C12.4736 20.8235 11.416 20.6137 10.234 19.3844C9.05196 18.1551 9.23859 16.0863 9.23859 16.0863Z" fill="white" fill-opacity="0.6"/>
</svg>
