<svg width="245" height="376" viewBox="0 0 245 376" fill="none" xmlns="http://www.w3.org/2000/svg">
<g filter="url(#filter0_dd_1_74)">
<path d="M20 95.7221C20 85.6072 27.552 77.0846 37.5934 75.8675L162.593 60.716C174.506 59.272 185 68.5706 185 80.5706V260.278C185 270.393 177.448 278.915 167.407 280.133L42.4067 295.284C30.4938 296.728 20 287.429 20 275.429V95.7221Z" fill="url(#paint0_linear_1_74)"/>
<path d="M21 95.7221C21 86.113 28.1744 78.0165 37.7137 76.8602L162.714 61.7087C174.031 60.3369 184 69.1706 184 80.5706V260.278C184 269.887 176.826 277.984 167.286 279.14L42.2863 294.291C30.9691 295.663 21 286.829 21 275.429V95.7221Z" stroke="url(#paint1_linear_1_74)" stroke-opacity="0.2" stroke-width="2"/>
</g>
<defs>
<filter id="filter0_dd_1_74" x="-40" y="0.567871" width="285" height="374.864" filterUnits="userSpaceOnUse" color-interpolation-filters="sRGB">
<feFlood flood-opacity="0" result="BackgroundImageFix"/>
<feColorMatrix in="SourceAlpha" type="matrix" values="0 0 0 0 0 0 0 0 0 0 0 0 0 0 0 0 0 0 127 0" result="hardAlpha"/>
<feOffset dy="20"/>
<feGaussianBlur stdDeviation="30"/>
<feComposite in2="hardAlpha" operator="out"/>
<feColorMatrix type="matrix" values="0 0 0 0 0.0640972 0 0 0 0 0.0794837 0 0 0 0 0.108333 0 0 0 1 0"/>
<feBlend mode="normal" in2="BackgroundImageFix" result="effect1_dropShadow_1_74"/>
<feColorMatrix in="SourceAlpha" type="matrix" values="0 0 0 0 0 0 0 0 0 0 0 0 0 0 0 0 0 0 127 0" result="hardAlpha"/>
<feOffset dy="-20"/>
<feGaussianBlur stdDeviation="20"/>
<feComposite in2="hardAlpha" operator="out"/>
<feColorMatrix type="matrix" values="0 0 0 0 0.167014 0 0 0 0 0.203125 0 0 0 0 0.270833 0 0 0 0.5 0"/>
<feBlend mode="normal" in2="effect1_dropShadow_1_74" result="effect2_dropShadow_1_74"/>
<feBlend mode="normal" in="SourceGraphic" in2="effect2_dropShadow_1_74" result="shape"/>
</filter>
<linearGradient id="paint0_linear_1_74" x1="79.5" y1="121.734" x2="115.716" y2="262.72" gradientUnits="userSpaceOnUse">
<stop stop-color="#353F54"/>
<stop offset="1" stop-color="#222834"/>
</linearGradient>
<linearGradient id="paint1_linear_1_74" x1="38.5" y1="66.9627" x2="168.663" y2="154.6" gradientUnits="userSpaceOnUse">
<stop stop-color="white"/>
<stop offset="0.844522"/>
<stop offset="1"/>
</linearGradient>
</defs>
</svg>
