<svg width="30" height="30" viewBox="0 0 30 30" fill="none" xmlns="http://www.w3.org/2000/svg">
<path fill-rule="evenodd" clip-rule="evenodd" d="M11.8693 0L17.0139 13.0031L20.151 5.06823L30 29.9805H23.731L23.7387 30H0L11.8693 0ZM22.8055 27.6413H27.0962L23.5512 18.6746C23.1334 18.8472 22.6316 18.9696 22.1126 18.8946C21.3679 18.7868 20.9286 18.5082 20.5947 18.2437C20.5432 18.2029 20.5007 18.1691 20.4653 18.141C20.3134 18.0202 20.2952 18.0057 20.2762 18.0035C20.271 18.0029 20.2658 18.0032 20.2578 18.0026C20.1536 17.994 20.0758 18.0137 19.8496 18.1616C19.8085 18.1884 19.7622 18.2199 19.7108 18.2548C19.5794 18.3443 19.4144 18.4566 19.2173 18.5721L22.8055 27.6413ZM16.9346 18.2095C17.0221 18.3403 17.1229 18.465 17.239 18.5746L20.8261 27.6413H13.2058L16.9346 18.2095ZM18.3964 16.4972C18.5736 16.4017 18.7209 16.3021 18.8795 16.1948L18.8795 16.1948C18.9441 16.1511 19.0104 16.1062 19.0814 16.0599C19.4062 15.8477 19.8116 15.6225 20.3647 15.6678C20.8651 15.7087 21.2272 16.0137 21.4178 16.1743C21.444 16.1963 21.4669 16.2157 21.4865 16.2312C21.6482 16.3592 21.8499 16.5037 22.3008 16.569C22.4274 16.5873 22.5655 16.5771 22.7092 16.5448L20.151 10.074L18.0038 15.505L18.3964 16.4972ZM16.0246 15.5054L11.219 27.6608H2.90482L7.83932 15.1888C7.87055 15.2186 7.90246 15.2485 7.935 15.2781C8.42637 15.7257 9.3391 16.3879 10.3045 15.9652C10.7477 15.7711 11.0915 15.5372 11.3272 15.3768C11.3786 15.3418 11.4249 15.3103 11.466 15.2835C11.6922 15.1357 11.77 15.116 11.8742 15.1245C11.8782 15.1248 11.8815 15.1249 11.8844 15.125C11.8874 15.1251 11.89 15.1251 11.8926 15.1254C11.9116 15.1276 11.9298 15.1421 12.0817 15.2629C12.117 15.2909 12.1596 15.3248 12.2111 15.3656C12.545 15.6301 12.9843 15.9088 13.729 16.0165C14.5769 16.1391 15.392 15.5893 15.8811 15.1876C15.8856 15.1839 15.8901 15.1802 15.8945 15.1765L16.0246 15.5054ZM8.92017 13.345C8.83005 13.2629 8.74527 13.1768 8.66843 13.0932L11.8693 5.00281L15.0739 13.1024C15.0388 13.1331 15.0026 13.1638 14.9654 13.1943C14.5288 13.5529 14.1482 13.7243 13.9172 13.6909C13.4663 13.6257 13.2646 13.4811 13.1029 13.3531C13.0833 13.3376 13.0604 13.3183 13.0342 13.2962C12.8436 13.1357 12.4815 12.8306 11.9811 12.7897C11.428 12.7444 11.0226 12.9696 10.6978 13.1818C10.6268 13.2282 10.5604 13.2731 10.4959 13.3168C10.268 13.4709 10.0634 13.6093 9.75996 13.7422C9.63452 13.7971 9.35167 13.738 8.92017 13.345Z" fill="white" fill-opacity="0.6"/>
</svg>
